<?xml version="1.0" encoding="utf-8"?>
<!-- Generator: Adobe Illustrator 15.0.0, SVG Export Plug-In . SVG Version: 6.00 Build 0)  -->
<!DOCTYPE svg PUBLIC "-//W3C//DTD SVG 1.1//EN" "http://www.w3.org/Graphics/SVG/1.1/DTD/svg11.dtd">
<svg version="1.1" id="Layer_1" xmlns="http://www.w3.org/2000/svg" xmlns:xlink="http://www.w3.org/1999/xlink" x="0px" y="0px"
	 width="144px" height="198.257px" viewBox="0 0 144 198.257" enable-background="new 0 0 144 198.257" xml:space="preserve">
<g>
	<g>
		
			<image overflow="visible" opacity="0.41" enable-background="new    " width="604" height="833" xlink:href="51002B41.png"  transform="matrix(0.238 0 0 0.2386 1.6709 -0.4629)">
		</image>
		<g>
			<path fill="#2F2E2C" d="M121.547,7.458H22.465c-6.314,0-11.434,5.12-11.434,11.434v154.221c0,6.314,5.12,11.436,11.434,11.436
				h99.082c6.316,0,11.436-5.121,11.436-11.436V18.892C132.982,12.578,127.863,7.458,121.547,7.458z"/>
		</g>
	</g>
	<g>
		
			<linearGradient id="SVGID_1_" gradientUnits="userSpaceOnUse" x1="-5201.9951" y1="5443.8198" x2="-5201.9951" y2="5317.0601" gradientTransform="matrix(1 0 0 -1 5274 5476.4619)">
			<stop  offset="0" style="stop-color:#FFDD33"/>
			<stop  offset="1" style="stop-color:#F9C700"/>
		</linearGradient>
		<rect x="10.839" y="32.439" opacity="0.17" fill="url(#SVGID_1_)" enable-background="new    " width="122.333" height="127.12"/>
		
			<linearGradient id="SVGID_2_" gradientUnits="userSpaceOnUse" x1="-5201.9951" y1="5443.8198" x2="-5201.9951" y2="5317.0601" gradientTransform="matrix(1 0 0 -1 5274 5476.4619)">
			<stop  offset="0" style="stop-color:#FFDD33"/>
			<stop  offset="1" style="stop-color:#F9C700"/>
		</linearGradient>
		<rect x="10.839" y="32.439" fill="url(#SVGID_2_)" width="122.333" height="127.12"/>
	</g>
	<g opacity="0.31">
		<polygon fill="#FFDD33" points="133.173,156.213 129.825,159.559 130.801,159.559 133.173,157.188 		"/>
		<polygon fill="#FFDD33" points="133.173,151.618 125.23,159.559 126.206,159.559 133.173,152.592 		"/>
		<polygon fill="#FFDD33" points="133.173,147.023 120.637,159.559 121.611,159.559 133.173,147.998 		"/>
		<polygon fill="#FFDD33" points="133.173,142.428 116.041,159.559 117.016,159.559 133.173,143.404 		"/>
		<polygon fill="#FFDD33" points="133.173,137.834 111.447,159.559 112.422,159.559 133.173,138.809 		"/>
		<polygon fill="#FFDD33" points="133.173,133.239 106.854,159.559 107.828,159.559 133.173,134.213 		"/>
		<polygon fill="#FFDD33" points="133.173,128.643 102.257,159.559 103.232,159.559 133.173,129.619 		"/>
		<polygon fill="#FFDD33" points="133.173,124.049 97.663,159.559 98.639,159.559 133.173,125.025 		"/>
		<polygon fill="#FFDD33" points="133.173,119.455 93.068,159.559 94.043,159.559 133.173,120.43 		"/>
		<polygon fill="#FFDD33" points="133.173,114.86 88.475,159.559 89.449,159.559 133.173,115.834 		"/>
		<polygon fill="#FFDD33" points="133.173,110.264 83.879,159.559 84.854,159.559 133.173,111.241 		"/>
		<polygon fill="#FFDD33" points="133.173,105.67 79.284,159.559 80.259,159.559 133.173,106.645 		"/>
		<polygon fill="#FFDD33" points="133.173,101.076 74.689,159.559 75.665,159.559 133.173,102.051 		"/>
		<polygon fill="#FFDD33" points="133.173,96.481 70.095,159.559 71.07,159.559 133.173,97.457 		"/>
		<polygon fill="#FFDD33" points="133.173,91.885 65.5,159.559 66.475,159.559 133.173,92.862 		"/>
		<polygon fill="#FFDD33" points="133.173,87.292 60.905,159.559 61.88,159.559 133.173,88.266 		"/>
		<polygon fill="#FFDD33" points="133.173,82.697 56.311,159.559 57.286,159.559 133.173,83.672 		"/>
		<polygon fill="#FFDD33" points="133.173,78.102 51.716,159.559 52.691,159.559 133.173,79.077 		"/>
		<polygon fill="#FFDD33" points="133.173,73.508 47.121,159.559 48.096,159.559 133.173,74.482 		"/>
		<polygon fill="#FFDD33" points="133.173,68.913 42.526,159.559 43.501,159.559 133.173,69.887 		"/>
		<polygon fill="#FFDD33" points="133.173,64.318 37.932,159.559 38.907,159.559 133.173,65.293 		"/>
		<polygon fill="#FFDD33" points="133.173,59.723 33.337,159.559 34.312,159.559 133.173,60.699 		"/>
		<polygon fill="#FFDD33" points="133.173,55.129 28.742,159.559 29.717,159.559 133.173,56.104 		"/>
		<polygon fill="#FFDD33" points="133.173,50.534 24.148,159.559 25.123,159.559 133.173,51.51 		"/>
		<polygon fill="#FFDD33" points="133.173,45.94 19.553,159.559 20.528,159.559 133.173,46.914 		"/>
		<polygon fill="#FFDD33" points="133.173,41.345 14.958,159.559 15.934,159.559 133.173,42.32 		"/>
		<polygon fill="#FFDD33" points="133.173,36.751 10.839,159.084 10.839,159.559 11.339,159.559 133.173,37.725 		"/>
		<polygon fill="#FFDD33" points="133.173,32.439 132.891,32.439 10.839,154.49 10.839,155.465 133.173,33.13 		"/>
		<polygon fill="#FFDD33" points="128.295,32.439 10.839,149.893 10.839,150.87 129.27,32.439 		"/>
		<polygon fill="#FFDD33" points="123.699,32.439 10.839,145.301 10.839,146.275 124.675,32.439 		"/>
		<polygon fill="#FFDD33" points="119.104,32.439 10.839,140.706 10.839,141.68 120.08,32.439 		"/>
		<polygon fill="#FFDD33" points="114.512,32.439 10.839,136.111 10.839,137.086 115.484,32.439 		"/>
		<polygon fill="#FFDD33" points="109.915,32.439 10.839,131.516 10.839,132.491 110.891,32.439 		"/>
		<polygon fill="#FFDD33" points="105.32,32.439 10.839,126.922 10.839,127.895 106.296,32.439 		"/>
		<polygon fill="#FFDD33" points="100.727,32.439 10.839,122.326 10.839,123.301 101.701,32.439 		"/>
		<polygon fill="#FFDD33" points="96.131,32.439 10.839,117.731 10.839,118.707 97.105,32.439 		"/>
		<polygon fill="#FFDD33" points="91.536,32.439 10.839,113.137 10.839,114.112 92.512,32.439 		"/>
		<polygon fill="#FFDD33" points="86.941,32.439 10.839,108.542 10.839,109.516 87.917,32.439 		"/>
		<polygon fill="#FFDD33" points="82.348,32.439 10.839,103.947 10.839,104.924 83.323,32.439 		"/>
		<polygon fill="#FFDD33" points="77.753,32.439 10.839,99.352 10.839,100.328 78.729,32.439 		"/>
		<polygon fill="#FFDD33" points="73.157,32.439 10.839,94.758 10.839,95.733 74.133,32.439 		"/>
		<polygon fill="#FFDD33" points="68.563,32.439 10.839,90.163 10.839,91.139 69.538,32.439 		"/>
		<polygon fill="#FFDD33" points="63.969,32.439 10.839,85.569 10.839,86.543 64.944,32.439 		"/>
		<polygon fill="#FFDD33" points="59.374,32.439 10.839,80.973 10.839,81.95 60.349,32.439 		"/>
		<polygon fill="#FFDD33" points="54.779,32.439 10.839,76.379 10.839,77.354 55.754,32.439 		"/>
		<polygon fill="#FFDD33" points="50.185,32.439 10.839,71.784 10.839,72.76 51.16,32.439 		"/>
		<polygon fill="#FFDD33" points="45.589,32.439 10.839,67.19 10.839,68.165 46.564,32.439 		"/>
		<polygon fill="#FFDD33" points="40.995,32.439 10.839,62.594 10.839,63.571 41.97,32.439 		"/>
		<polygon fill="#FFDD33" points="36.4,32.439 10.839,58 10.839,58.975 37.375,32.439 		"/>
		<polygon fill="#FFDD33" points="31.805,32.439 10.839,53.406 10.839,54.381 32.78,32.439 		"/>
		<polygon fill="#FFDD33" points="27.211,32.439 10.839,48.811 10.839,49.786 28.186,32.439 		"/>
		<polygon fill="#FFDD33" points="22.616,32.439 10.839,44.217 10.839,45.192 23.591,32.439 		"/>
		<polygon fill="#FFDD33" points="18.021,32.439 10.839,39.622 10.839,40.596 18.997,32.439 		"/>
		<polygon fill="#FFDD33" points="13.427,32.439 10.839,35.026 10.839,36.002 14.402,32.439 		"/>
	</g>
	<path fill="#2F2E2C" d="M133.173,18.651c0-6.334-5.135-11.47-11.47-11.47H22.31c-6.334,0-11.47,5.135-11.47,11.47V32.44h122.333
		V18.651z"/>
	<g>
		<path fill="#EEEDEA" d="M10.839,159.559v13.797c0,6.335,5.136,11.471,11.47,11.471h67.405v-25.268H10.839z"/>
		
			<linearGradient id="SVGID_3_" gradientUnits="userSpaceOnUse" x1="-5162.5566" y1="5317.0815" x2="-5162.5566" y2="5291.3252" gradientTransform="matrix(1 0 0 -1 5274 5476.4619)">
			<stop  offset="0" style="stop-color:#4F4C46"/>
			<stop  offset="1" style="stop-color:#363430"/>
		</linearGradient>
		<path fill="url(#SVGID_3_)" d="M89.715,159.559v25.268h31.988c6.335,0,11.47-5.136,11.47-11.471v-13.797H89.715z"/>
	</g>
	<g>
		<g>
			<path fill="#F7F4F2" d="M23.094,28.106v-2.538c-0.743-0.052-1.446-0.245-2.083-0.558l-1.269,2.195
				C20.754,27.729,21.891,28.05,23.094,28.106z"/>
			<path fill="#FFD500" d="M16.662,15.42l2.182,1.294c1.02-1.472,2.722-2.437,4.647-2.437c3.124,0,5.655,2.53,5.655,5.654
				c0,2.987-2.32,5.433-5.256,5.636v2.538c4.336-0.207,7.788-3.788,7.79-8.174c-0.001-4.521-3.666-8.188-8.188-8.188
				C20.637,11.744,18.126,13.207,16.662,15.42z"/>
			<path fill="#807970" d="M20.325,24.614c-1.502-1.017-2.487-2.735-2.487-4.683c0-0.91,0.217-1.77,0.6-2.533l-2.182-1.293
				c-0.606,1.143-0.951,2.444-0.951,3.826c0.001,2.884,1.494,5.419,3.749,6.877L20.325,24.614z"/>
		</g>
		<polygon fill="#F7F4F2" points="26.46,17.121 20.54,17.121 20.54,19.144 22.402,19.144 22.402,23.157 24.566,23.157 
			24.566,19.144 26.46,19.144 		"/>
	</g>
	<path fill="#C3C0BC" d="M105.844,24.408c0,0.58-0.469,1.049-1.049,1.049h-10.92c-0.579,0-1.049-0.47-1.049-1.049l0,0
		c0-0.581,0.47-1.051,1.049-1.051h10.92C105.375,23.357,105.844,23.827,105.844,24.408L105.844,24.408z"/>
	<path fill="#C3C0BC" d="M122.188,19.843l4.236-4.238c0.41-0.412,0.41-1.076,0-1.485c-0.408-0.411-1.072-0.411-1.484,0l-4.237,4.239
		l-4.239-4.24c-0.41-0.41-1.074-0.41-1.482,0c-0.41,0.41-0.412,1.075,0,1.485l4.236,4.239l-4.236,4.238
		c-0.41,0.41-0.41,1.074,0,1.484c0.408,0.41,1.072,0.411,1.484,0l4.237-4.238l4.235,4.239c0.412,0.41,1.076,0.41,1.485,0
		c0.411-0.411,0.411-1.075,0-1.485L122.188,19.843z"/>
	<g>
		<path fill="#2F2E2C" d="M30.768,104.391v-3.02c0,0,5.286-17.607,9.224-29.009c1.093-3.188,1.093-5.873,1.093-8.554V51.567
			c0-2.52-1.509-3.777-3.606-3.777c-2.101,0-3.612,1.257-3.612,3.777v10.896h-3.099c0,0,0-7.128,0-10.896
			c0-3.777,2.512-6.289,6.71-6.289c4.193,0,6.706,2.512,6.706,6.289v12.242c0,2.682,0,5.871-1.338,9.64
			c-2.682,7.462-8.979,28.431-8.979,28.431h10.569v2.512H30.768L30.768,104.391z"/>
		<path fill="#2F2E2C" d="M48.805,62.463h3.939v4.191h-3.939V62.463z M48.805,100.198h3.939v4.193h-3.939V100.198z"/>
		<path fill="#2F2E2C" d="M70.775,98.518c0,3.775-2.512,6.287-6.704,6.287c-4.192,0-6.711-2.512-6.711-6.287V51.566
			c0-3.777,2.519-6.289,6.711-6.289c4.192,0,6.704,2.512,6.704,6.289V98.518z M67.677,51.566c0-2.52-1.509-3.777-3.605-3.777
			c-2.096,0-3.604,1.257-3.604,3.777v46.952c0,2.52,1.509,3.775,3.604,3.775c2.097,0,3.605-1.256,3.605-3.775V51.566z"/>
		<path fill="#2F2E2C" d="M88.896,69.842c0,3.02-2.342,4.363-3.857,4.363c1.516,0,3.857,1.338,3.857,4.355c0,0.84,0-1.926,0,19.957
			c0,3.775-2.514,6.287-6.703,6.287c-4.193,0-6.713-2.512-6.713-6.287V86.194h3.105v12.324c0,2.52,1.51,3.775,3.605,3.775
			c2.095,0,3.604-1.256,3.604-3.775V78.813c0-2.348-1.094-3.352-4.021-3.352c-0.506,0-1.762,0-1.762,0v-2.514c0,0,0.922,0,1.762,0
			c2.927,0,4.021-1.01,4.021-3.359c0-1.925,0-0.334,0-18.022c0-2.52-1.51-3.777-3.604-3.777c-2.096,0-3.605,1.257-3.605,3.777
			v10.896H75.48V51.566c0-3.777,2.52-6.289,6.713-6.289c4.189,0,6.703,2.512,6.703,6.289V69.842z"/>
	</g>
	<g>
		<path fill="#2F2E2C" d="M100.035,45.451h3.273c2.073,0,3.602,1.31,3.602,3.384v3.077c0,2.074-1.527,3.384-3.602,3.384h-1.746
			v5.436h-1.527V45.451z M105.383,48.835c0-1.42-0.873-2.075-2.074-2.075h-1.744v7.226h1.744c1.201,0,2.074-0.654,2.074-2.074
			V48.835z"/>
		<path fill="#2F2E2C" d="M108.662,60.731v-15.28h2.072l2.621,12.987l2.617-12.987h2.074v15.28h-1.529V48.725l-2.398,12.006h-1.527
			l-2.402-12.006v12.006H108.662z"/>
	</g>
	<g>
		<path fill="#2F2E2C" d="M34.334,135.504l-0.85,7.975h-1.177l-1.305-9.149h0.979l0.914,7.972l0.797-7.972h1.282l0.795,7.972
			l0.916-7.972h0.981l-1.306,9.147h-1.176L34.334,135.504z"/>
		<path fill="#2F2E2C" d="M41.838,134.329v0.721h-2.352v2.873h2.221v0.719h-2.221v4.117h2.352v0.721h-3.267v-9.149L41.838,134.329
			L41.838,134.329z"/>
		<path fill="#2F2E2C" d="M47.199,141.45c0,1.242-0.914,2.027-2.157,2.027c-1.24,0-2.091,0-2.091,0v-9.148c0,0,0.851,0,2.091,0
			c1.243,0,2.157,0.785,2.157,2.025V141.45z M46.285,136.354c0-0.85-0.521-1.24-1.243-1.24c-0.718,0-1.174,0-1.174,0v7.579
			c0,0,0.456,0,1.174,0c0.721,0,1.243-0.392,1.243-1.242V136.354z"/>
		<path fill="#2F2E2C" d="M48.47,143.477v-9.148h1.241l2.155,7.253v-7.253h0.916v9.148h-1.241l-2.155-7.254v7.254H48.47z"/>
		<path fill="#2F2E2C" d="M57.36,134.329v0.721h-2.352v2.873h2.22v0.719h-2.22v4.117h2.352v0.721h-3.27v-9.149L57.36,134.329
			L57.36,134.329z"/>
		<path fill="#2F2E2C" d="M58.211,140.602h0.914v0.914c0,0.85,0.459,1.242,1.243,1.242c0.77,0,1.242-0.393,1.242-1.242
			c0-0.051,0-0.562,0-0.562c0-2.053-3.269-1.764-3.269-4.444c0,0,0-0.104,0-0.221c0-1.046,0.733-2.025,1.936-2.025
			c1.333,0,2.064,0.783,2.064,1.906v0.705h-0.914v-0.705c0-0.703-0.38-1.123-1.15-1.123c-0.642,0-1.02,0.613-1.02,1.242
			c0,0.037,0,0.194,0,0.194c0,2.155,3.267,1.766,3.267,4.47c0,0,0,0.495,0,0.562c0,1.24-0.914,2.024-2.155,2.024
			c-1.243,0-2.157-0.784-2.157-2.024L58.211,140.602L58.211,140.602z"/>
		<path fill="#2F2E2C" d="M67.95,141.45c0,1.242-0.914,2.027-2.157,2.027c-1.24,0-2.089,0-2.089,0v-9.148c0,0,0.85,0,2.089,0
			c1.243,0,2.157,0.785,2.157,2.025V141.45z M67.036,136.354c0-0.85-0.523-1.24-1.243-1.24c-0.716,0-1.175,0-1.175,0v7.579
			c0,0,0.459,0,1.175,0c0.72,0,1.243-0.392,1.243-1.242V136.354z"/>
		<path fill="#2F2E2C" d="M70.071,141.516l-0.367,1.961h-0.968l1.883-9.148h1.148l1.883,9.148h-0.969l-0.365-1.961H70.071z
			 M72.173,140.799l-0.979-5.295l-0.993,5.295H72.173z"/>
		<path fill="#2F2E2C" d="M75.928,139.817v3.66h-0.914v-3.66l-1.765-5.488h0.967l1.257,4.312l1.252-4.312h0.967L75.928,139.817z"/>
		<path fill="#2F2E2C" d="M83.091,134.329v9.148h-0.915v-8.363h-0.552c0,0,0-0.604,0-0.785
			C81.797,134.329,83.091,134.329,83.091,134.329z"/>
		<path fill="#2F2E2C" d="M86.605,136.981c1.242,0,2.092,0.785,2.092,2.027v2.51c0,1.24-0.85,2.024-2.092,2.024
			c-1.239,0-2.092-0.784-2.092-2.024v-0.877h0.916v0.877c0,0.849,0.625,1.24,1.176,1.24c0.59,0,1.177-0.392,1.177-1.24v-2.51
			c0-0.849-0.458-1.242-1.177-1.242s-1.176,0.394-1.176,1.242v0.156h-0.916l0.133-4.836h4.051v0.721h-3.149l-0.118,2.547
			C85.561,137.307,86.005,136.981,86.605,136.981z"/>
		<path fill="#2F2E2C" d="M93.438,140.955v0.562c0,0.85,0.392,1.242,1.045,1.242c0.654,0,1.045-0.393,1.045-1.242v-7.188h0.914
			v7.188c0,1.242-0.782,2.025-1.959,2.025c-1.176,0-1.961-0.783-1.961-2.025v-0.562H93.438z"/>
		<path fill="#2F2E2C" d="M98.537,134.329v7.188c0,0.85,0.521,1.242,1.242,1.242c0.719,0,1.24-0.393,1.24-1.242v-7.188h0.916v7.188
			c0,1.242-0.916,2.025-2.156,2.025c-1.242,0-2.157-0.783-2.157-2.025v-7.188H98.537z"/>
		<path fill="#2F2E2C" d="M104.003,134.329v8.43h2.354v0.719h-3.27v-9.148H104.003z"/>
		<path fill="#2F2E2C" d="M111.402,134.329v9.148h-0.916v-8.363h-0.549c0,0,0-0.604,0-0.785
			C110.107,134.329,111.402,134.329,111.402,134.329z"/>
		<path fill="#2F2E2C" d="M114.193,134.329v9.148h-0.914v-8.363h-0.551c0,0,0-0.604,0-0.785
			C112.898,134.329,114.193,134.329,114.193,134.329z"/>
	</g>
	<g>
		<path fill="#EFECEA" d="M103.412,173.449v1.001c0,1.335-1,2.068-2.27,2.068c-1.269,0-2.271-0.733-2.271-2.068v-5.342
			c0-1.335,1.002-2.07,2.271-2.07c1.27,0,2.27,0.734,2.27,2.07v1.135h-1.27v-1.135c0-0.6-0.466-0.934-1-0.934
			c-0.535,0-1.002,0.334-1.002,0.934v5.342c0,0.6,0.467,0.936,1.002,0.936c0.534,0,1-0.336,1-0.936v-1.001H103.412z"/>
		<path fill="#EFECEA" d="M105.753,167.104v8.281h2.204v1.066h-3.473v-9.348H105.753L105.753,167.104z"/>
		<path fill="#EFECEA" d="M113.061,174.45c0,1.335-1.016,2.068-2.283,2.068c-1.27,0-2.283-0.733-2.283-2.068v-5.342
			c0-1.335,1.015-2.07,2.283-2.07s2.283,0.734,2.283,2.07V174.45z M111.777,169.108c0-0.6-0.469-0.934-1-0.934
			c-0.535,0-1.002,0.334-1.002,0.934v5.342c0,0.6,0.467,0.936,1.002,0.936c0.531,0,1-0.336,1-0.936V169.108z"/>
		<path fill="#EFECEA" d="M118.671,173.449v1.001c0,1.335-1.001,2.068-2.271,2.068c-1.268,0-2.27-0.733-2.27-2.068v-5.342
			c0-1.335,1.002-2.07,2.27-2.07c1.27,0,2.271,0.734,2.271,2.07v1.135h-1.269v-1.135c0-0.6-0.467-0.934-1.002-0.934
			c-0.534,0-1.002,0.334-1.002,0.934v5.342c0,0.6,0.468,0.936,1.002,0.936c0.535,0,1.002-0.336,1.002-0.936v-1.001H118.671z"/>
		<path fill="#EFECEA" d="M121.012,176.452h-1.268v-9.348h1.268V176.452z M122.868,167.104h1.28l-1.854,4.273l1.922,5.075h-1.375
			l-1.829-5.075L122.868,167.104z"/>
	</g>
	
		<linearGradient id="SVGID_4_" gradientUnits="userSpaceOnUse" x1="-5252.439" y1="5357.1089" x2="-5151.5469" y2="5357.1089" gradientTransform="matrix(1 0 0 -1 5274 5476.4619)">
		<stop  offset="0" style="stop-color:#2F2E2C;stop-opacity:0"/>
		<stop  offset="0.5" style="stop-color:#2F2E2C;stop-opacity:0.27"/>
		<stop  offset="1" style="stop-color:#2F2E2C;stop-opacity:0"/>
	</linearGradient>
	<rect x="21.561" y="119.141" fill="url(#SVGID_4_)" width="100.892" height="0.424"/>
	<g>
		<path fill="#53504A" d="M25.492,167.098v0.736h-2.407v2.94h2.272v0.735h-2.272v4.211h2.407v0.734h-3.344v-9.357H25.492z"/>
		<path fill="#53504A" d="M29.303,171.51c0-0.601-0.254-1.069-0.802-1.069c-0.684,0-1.203,0.616-1.203,1.433v4.583h-0.871v-6.684
			h0.842l0.028,0.508c0.307-0.36,0.706-0.574,1.215-0.574c1.07,0,1.658,0.802,1.658,1.804v4.946h-0.869v-4.946H29.303z"/>
		<path fill="#53504A" d="M33.247,169.773v0.735h-1.002v4.41c0,0.602,0.335,0.869,0.763,0.869h0.239v0.734h-0.265
			c-1.004,0-1.605-0.602-1.605-1.604v-4.412H30.91v-0.734h0.468v-1.87h0.868v1.87L33.247,169.773L33.247,169.773z"/>
		<path fill="#53504A" d="M37.794,174.719c0,1.069-0.601,1.803-1.871,1.803s-1.873-0.733-1.873-1.803v-3.209
			c0-1.069,0.603-1.804,1.873-1.804s1.871,0.734,1.871,1.804v1.605h-2.873v1.604c0,0.67,0.268,1.069,1.002,1.069
			c0.736,0,1.002-0.399,1.002-1.069v-0.668h0.869V174.719z M34.921,172.379h2.004v-0.869c0-0.666-0.266-1.069-1.002-1.069
			c-0.734,0-1.002,0.401-1.002,1.069V172.379z"/>
		<path fill="#53504A" d="M41.405,170.602c-0.12-0.08-0.293-0.147-0.467-0.147c-0.682,0-1.203,0.603-1.203,1.419v4.583h-0.871
			v-6.684h0.842l0.028,0.508c0.307-0.36,0.706-0.574,1.215-0.574c0.161,0,0.308,0.013,0.455,0.054L41.405,170.602L41.405,170.602z"
			/>
		<path fill="#53504A" d="M43.881,167.098h2.004c1.271,0,2.207,0.805,2.207,2.074v1.883c0,1.271-0.936,2.072-2.207,2.072h-1.069
			v3.328h-0.935V167.098z M47.156,169.172c0-0.869-0.534-1.27-1.271-1.27h-1.069v4.423h1.069c0.736,0,1.271-0.399,1.271-1.271
			V169.172z"/>
		<path fill="#53504A" d="M49.966,168.571h-0.869V167.1h0.869V168.571z M49.097,169.773h0.869v6.684h-0.869V169.773z"/>
		<path fill="#53504A" d="M53.977,171.51c0-0.601-0.254-1.069-0.801-1.069c-0.682,0-1.203,0.616-1.203,1.433v4.583h-0.871v-6.684
			h0.844l0.027,0.508c0.307-0.36,0.708-0.574,1.216-0.574c1.069,0,1.657,0.802,1.657,1.804v4.946h-0.869V171.51z"/>
	</g>
</g>
</svg>
