<?xml version="1.0" encoding="utf-8"?>
<!-- Generator: Adobe Illustrator 15.0.0, SVG Export Plug-In . SVG Version: 6.00 Build 0)  -->
<!DOCTYPE svg PUBLIC "-//W3C//DTD SVG 1.1//EN" "http://www.w3.org/Graphics/SVG/1.1/DTD/svg11.dtd">
<svg version="1.1" id="Layer_1" xmlns="http://www.w3.org/2000/svg" xmlns:xlink="http://www.w3.org/1999/xlink" x="0px" y="0px"
	 width="144px" height="68.898px" viewBox="0 0 144 68.898" enable-background="new 0 0 144 68.898" xml:space="preserve">
<g>
	<rect x="10.578" y="10.794" fill="#EFEFEF" width="122.333" height="45.48"/>
	<g>
		<g>
			<path fill="#2F2D2A" d="M82.471,42.891v-1.356c-0.396-0.027-0.772-0.131-1.113-0.299L80.68,42.41
				C81.221,42.689,81.828,42.861,82.471,42.891z"/>
			<path fill="#FFD500" d="M79.034,36.112l1.166,0.692c0.545-0.787,1.455-1.303,2.483-1.303c1.669,0,3.021,1.352,3.021,3.021
				c0,1.596-1.239,2.902-2.808,3.012v1.356c2.316-0.11,4.161-2.024,4.162-4.368c-0.001-2.416-1.959-4.375-4.376-4.375
				C81.158,34.148,79.817,34.929,79.034,36.112z"/>
			<path fill="#807970" d="M80.992,41.025c-0.804-0.544-1.33-1.461-1.33-2.503c0-0.486,0.116-0.946,0.32-1.354l-1.166-0.69
				c-0.323,0.609-0.508,1.307-0.508,2.044c0.002,1.542,0.799,2.896,2.004,3.675L80.992,41.025z"/>
		</g>
		<polygon fill="#2F2D2A" points="84.27,37.021 81.106,37.021 81.106,38.102 82.102,38.102 82.102,40.246 83.258,40.246 
			83.258,38.102 84.27,38.102 		"/>
	</g>
	<circle fill="#2F2D2A" cx="71.835" cy="25.238" r="1.695"/>
	<path fill="#2F2D2A" d="M65.733,56.177c-0.035,0-0.07-0.012-0.1-0.034c-0.068-0.056-0.08-0.155-0.025-0.224
		c0.053-0.066,0.15-0.08,0.219-0.029c0.068,0.05,0.086,0.145,0.039,0.215c-0.002,0.004-0.007,0.01-0.01,0.014
		C65.825,56.158,65.779,56.177,65.733,56.177L65.733,56.177z M66.517,54.978c-0.02,0-0.039-0.003-0.059-0.011
		c-0.082-0.032-0.121-0.126-0.089-0.206c0.005-0.011,0.01-0.021,0.017-0.031c0.048-0.073,0.146-0.093,0.22-0.044
		c0.07,0.047,0.091,0.14,0.05,0.212C66.627,54.949,66.573,54.978,66.517,54.978L66.517,54.978z M67.258,53.751
		c-0.017,0-0.034-0.002-0.05-0.008c-0.084-0.027-0.129-0.117-0.101-0.201c0.004-0.014,0.011-0.027,0.019-0.039
		c0.049-0.072,0.147-0.094,0.221-0.044c0.068,0.046,0.091,0.137,0.051,0.208C67.37,53.72,67.315,53.751,67.258,53.751L67.258,53.751
		z M67.954,52.5c-0.016,0-0.033-0.002-0.05-0.008c-0.083-0.028-0.128-0.119-0.101-0.201c0.004-0.014,0.012-0.027,0.02-0.039
		c0.049-0.074,0.146-0.094,0.221-0.045c0.068,0.047,0.09,0.137,0.051,0.209C68.067,52.468,68.013,52.5,67.954,52.5L67.954,52.5z
		 M68.606,51.222c-0.017,0-0.033-0.002-0.05-0.008c-0.083-0.027-0.128-0.118-0.101-0.201c0.004-0.014,0.012-0.027,0.02-0.039
		c0.048-0.074,0.146-0.094,0.22-0.045c0.069,0.047,0.091,0.138,0.052,0.209C68.719,51.191,68.665,51.222,68.606,51.222
		L68.606,51.222z M69.212,49.921c-0.026,0-0.054-0.006-0.078-0.02c-0.071-0.041-0.1-0.129-0.066-0.201
		c0.031-0.076,0.115-0.115,0.196-0.09c0.083,0.027,0.128,0.118,0.101,0.201c-0.004,0.01-0.009,0.021-0.014,0.03
		C69.321,49.894,69.268,49.921,69.212,49.921L69.212,49.921z M69.771,48.601c-0.026,0-0.054-0.007-0.079-0.021
		c-0.07-0.041-0.099-0.127-0.066-0.201c0.031-0.075,0.115-0.115,0.196-0.088c0.083,0.027,0.128,0.117,0.101,0.2
		c-0.004,0.011-0.008,0.021-0.014,0.03C69.88,48.572,69.826,48.601,69.771,48.601L69.771,48.601z M70.283,47.261
		c-0.015,0-0.029-0.002-0.044-0.007c-0.084-0.024-0.133-0.112-0.109-0.196l0.306,0.087C70.415,47.214,70.353,47.261,70.283,47.261
		L70.283,47.261z M70.745,45.902c-0.016,0-0.033-0.003-0.049-0.008c-0.084-0.029-0.129-0.118-0.102-0.201
		c0.027-0.082,0.115-0.129,0.198-0.104c0.083,0.026,0.13,0.112,0.106,0.195c-0.001,0.002-0.002,0.006-0.003,0.008
		C70.874,45.86,70.812,45.902,70.745,45.902L70.745,45.902z M71.158,44.531c-0.017,0-0.034-0.002-0.05-0.008
		c-0.084-0.027-0.129-0.117-0.101-0.201c0.026-0.082,0.114-0.127,0.198-0.102c0.082,0.025,0.129,0.111,0.105,0.193
		c0,0.004-0.002,0.007-0.002,0.009C71.286,44.489,71.226,44.531,71.158,44.531L71.158,44.531z M71.521,43.147
		c-0.088,0-0.159-0.071-0.159-0.159c0-0.014,0.003-0.031,0.007-0.045c0.024-0.084,0.112-0.133,0.196-0.109
		c0.08,0.023,0.128,0.104,0.113,0.183C71.665,43.09,71.601,43.147,71.521,43.147L71.521,43.147z M71.835,41.751
		c-0.088,0-0.158-0.072-0.158-0.16c0-0.014,0.002-0.031,0.006-0.045c0.023-0.084,0.112-0.133,0.195-0.109
		c0.08,0.023,0.129,0.104,0.113,0.184C71.978,41.695,71.913,41.751,71.835,41.751L71.835,41.751z M72.099,40.343
		c-0.089,0-0.16-0.07-0.16-0.158c0-0.015,0.003-0.031,0.007-0.045c0.024-0.084,0.112-0.133,0.196-0.109
		c0.08,0.023,0.128,0.103,0.113,0.184C72.241,40.288,72.176,40.343,72.099,40.343L72.099,40.343z M72.312,38.929
		c-0.018,0-0.034-0.003-0.051-0.009c-0.073-0.024-0.117-0.097-0.107-0.169c0.008-0.08,0.076-0.143,0.158-0.143
		c0.087,0,0.158,0.072,0.158,0.16c0,0.017-0.002,0.035-0.008,0.051C72.439,38.886,72.378,38.929,72.312,38.929L72.312,38.929z
		 M72.473,37.507c-0.017,0-0.033-0.003-0.05-0.009c-0.073-0.024-0.116-0.097-0.107-0.169c0.009-0.08,0.076-0.143,0.158-0.143
		c0.088,0,0.158,0.072,0.158,0.16c0,0.017-0.002,0.035-0.008,0.051C72.602,37.464,72.54,37.507,72.473,37.507L72.473,37.507z
		 M72.585,36.08c-0.014,0-0.029-0.002-0.043-0.006c-0.076-0.021-0.123-0.094-0.115-0.17c0.008-0.08,0.076-0.143,0.158-0.143
		c0.088,0,0.159,0.07,0.159,0.158c0,0.016-0.003,0.031-0.007,0.045C72.718,36.035,72.654,36.08,72.585,36.08L72.585,36.08z
		 M72.646,34.651c-0.089,0-0.159-0.071-0.159-0.159s0.07-0.16,0.159-0.16c0.087,0,0.158,0.07,0.158,0.158v0.002
		C72.805,34.58,72.733,34.651,72.646,34.651L72.646,34.651z M72.657,33.22c-0.088,0-0.158-0.072-0.158-0.16
		c0-0.087,0.07-0.159,0.158-0.159s0.159,0.071,0.159,0.158v0.001C72.816,33.148,72.745,33.22,72.657,33.22L72.657,33.22z
		 M72.619,31.791c-0.088,0-0.159-0.072-0.159-0.159c0-0.088,0.071-0.159,0.159-0.159c0.087,0,0.158,0.07,0.158,0.158v0.001
		C72.777,31.718,72.706,31.791,72.619,31.791L72.619,31.791z M72.53,30.363c-0.066,0-0.129-0.043-0.15-0.109
		c-0.006-0.017-0.008-0.035-0.008-0.053c0-0.087,0.07-0.158,0.158-0.158c0.082,0,0.148,0.062,0.158,0.141
		c0.008,0.074-0.035,0.146-0.107,0.171C72.563,30.359,72.547,30.363,72.53,30.363L72.53,30.363z M72.392,28.937
		c-0.066,0-0.129-0.041-0.15-0.107c-0.006-0.017-0.009-0.035-0.009-0.053c0-0.088,0.071-0.158,0.159-0.158
		c0.081,0,0.148,0.062,0.157,0.143c0.009,0.072-0.034,0.145-0.107,0.168C72.425,28.935,72.407,28.937,72.392,28.937L72.392,28.937z
		 M72.201,27.519c-0.078,0-0.144-0.057-0.156-0.131c-0.015-0.08,0.032-0.159,0.112-0.182c0.084-0.024,0.172,0.024,0.197,0.109
		c0.004,0.014,0.006,0.029,0.006,0.045C72.36,27.449,72.289,27.519,72.201,27.519L72.201,27.519z M70.501,20.579
		c-0.069,0-0.133-0.046-0.152-0.116c-0.024-0.082,0.022-0.17,0.105-0.195c0.082-0.025,0.17,0.02,0.197,0.102
		c0,0.002,0.002,0.005,0.002,0.008c0.024,0.084-0.024,0.172-0.109,0.195C70.53,20.576,70.515,20.579,70.501,20.579L70.501,20.579z
		 M70.944,21.943c-0.069,0-0.133-0.046-0.152-0.116c-0.024-0.083,0.022-0.171,0.105-0.196c0.082-0.025,0.17,0.02,0.197,0.102
		c0,0.002,0.002,0.006,0.002,0.008c0.024,0.084-0.024,0.172-0.109,0.196C70.974,21.94,70.959,21.943,70.944,21.943L70.944,21.943z
		 M71.332,23.32c-0.069,0-0.133-0.046-0.152-0.115c-0.024-0.084,0.022-0.172,0.105-0.197c0.082-0.025,0.17,0.02,0.197,0.102
		c0.001,0.002,0.002,0.006,0.003,0.008c0.023,0.084-0.025,0.172-0.109,0.196C71.361,23.318,71.347,23.32,71.332,23.32L71.332,23.32z
		 M70.013,19.234c-0.055,0-0.107-0.029-0.137-0.08c-0.006-0.01-0.012-0.021-0.014-0.031c-0.028-0.082,0.017-0.172,0.1-0.2
		c0.08-0.026,0.165,0.013,0.197,0.089c0.031,0.073,0.004,0.16-0.067,0.201C70.067,19.226,70.04,19.234,70.013,19.234L70.013,19.234z
		 M69.479,17.91c-0.055,0-0.108-0.027-0.138-0.08c-0.006-0.008-0.01-0.02-0.014-0.029c-0.027-0.084,0.018-0.174,0.101-0.201
		c0.08-0.025,0.165,0.014,0.196,0.089c0.032,0.073,0.004,0.161-0.066,0.201C69.532,17.904,69.505,17.91,69.479,17.91L69.479,17.91z
		 M68.897,16.607c-0.051,0-0.102-0.025-0.132-0.07c-0.009-0.013-0.015-0.027-0.019-0.039c-0.028-0.084,0.017-0.174,0.1-0.202
		c0.079-0.026,0.162,0.013,0.195,0.086c0.031,0.069,0.01,0.155-0.057,0.198C68.958,16.597,68.928,16.607,68.897,16.607
		L68.897,16.607z M68.271,15.324c-0.059,0-0.113-0.031-0.141-0.084c-0.039-0.07-0.018-0.162,0.052-0.208
		c0.073-0.049,0.171-0.029,0.22,0.044c0.008,0.012,0.016,0.025,0.02,0.039c0.027,0.084-0.018,0.174-0.101,0.201
		C68.304,15.322,68.287,15.324,68.271,15.324L68.271,15.324z M67.597,14.064c-0.057,0-0.111-0.031-0.14-0.084
		c-0.039-0.071-0.018-0.162,0.052-0.208c0.072-0.049,0.171-0.029,0.22,0.044c0.008,0.012,0.015,0.025,0.02,0.039
		c0.028,0.084-0.018,0.174-0.101,0.201C67.63,14.062,67.614,14.064,67.597,14.064L67.597,14.064z M66.88,12.83
		c-0.057,0-0.11-0.031-0.139-0.082c-0.042-0.071-0.021-0.164,0.049-0.211c0.074-0.049,0.172-0.029,0.221,0.045
		c0.006,0.009,0.012,0.02,0.016,0.029c0.033,0.082-0.007,0.174-0.088,0.207C66.919,12.826,66.899,12.83,66.88,12.83L66.88,12.83z
		 M66.118,11.621c-0.046,0-0.092-0.021-0.123-0.061l0.248-0.199c0.055,0.07,0.043,0.17-0.025,0.225
		C66.188,11.609,66.153,11.621,66.118,11.621L66.118,11.621z"/>
	<path fill="#2F2D2A" d="M77.858,55.825c-0.017,0-0.034-0.003-0.051-0.009c-0.084-0.027-0.128-0.117-0.1-0.2
		c0.004-0.014,0.011-0.028,0.019-0.04c0.048-0.072,0.146-0.092,0.22-0.043c0.069,0.045,0.091,0.136,0.052,0.207
		C77.97,55.792,77.916,55.825,77.858,55.825L77.858,55.825z M78.471,54.528c-0.026,0-0.054-0.007-0.078-0.021
		c-0.071-0.041-0.099-0.127-0.068-0.201c0.032-0.076,0.118-0.116,0.198-0.09c0.082,0.027,0.128,0.117,0.1,0.201
		c-0.003,0.01-0.008,0.021-0.014,0.03C78.58,54.5,78.526,54.528,78.471,54.528L78.471,54.528z M79.047,53.214
		c-0.027,0-0.054-0.008-0.079-0.021c-0.07-0.041-0.099-0.128-0.066-0.201c0.032-0.076,0.116-0.115,0.196-0.089
		c0.084,0.026,0.128,0.117,0.101,0.2c-0.004,0.01-0.009,0.021-0.014,0.03C79.155,53.185,79.103,53.214,79.047,53.214L79.047,53.214z
		 M79.585,51.882c-0.026,0-0.055-0.006-0.079-0.021c-0.07-0.04-0.098-0.127-0.067-0.2c0.032-0.076,0.117-0.115,0.197-0.09
		c0.083,0.027,0.129,0.118,0.101,0.201c-0.003,0.01-0.008,0.021-0.013,0.03C79.693,51.854,79.64,51.882,79.585,51.882L79.585,51.882
		z M80.086,50.537c-0.015,0-0.03-0.002-0.045-0.006c-0.084-0.023-0.133-0.111-0.108-0.195l0.306,0.086
		C80.219,50.492,80.154,50.537,80.086,50.537L80.086,50.537z M80.547,49.177c-0.018,0-0.034-0.002-0.05-0.008
		c-0.084-0.027-0.129-0.117-0.102-0.201c0.028-0.082,0.114-0.128,0.198-0.102c0.083,0.025,0.13,0.111,0.105,0.194
		c0,0.002-0.001,0.005-0.002,0.009C80.675,49.136,80.613,49.177,80.547,49.177L80.547,49.177z M80.968,47.81
		c-0.017,0-0.033-0.004-0.051-0.009c-0.082-0.027-0.128-0.118-0.1-0.2c0.026-0.082,0.114-0.129,0.197-0.103
		c0.082,0.024,0.13,0.111,0.106,0.194c0,0.002-0.002,0.006-0.002,0.008C81.096,47.767,81.034,47.81,80.968,47.81L80.968,47.81z
		 M81.35,46.431c-0.017,0-0.034-0.004-0.051-0.01c-0.083-0.027-0.128-0.117-0.1-0.2c0.026-0.081,0.114-0.128,0.197-0.103
		s0.13,0.111,0.106,0.195c-0.001,0.002-0.002,0.006-0.003,0.008C81.479,46.388,81.416,46.431,81.35,46.431L81.35,46.431z
		 M81.691,45.041c-0.088,0-0.158-0.07-0.158-0.158c0-0.016,0.002-0.031,0.006-0.046c0.024-0.085,0.113-0.133,0.196-0.108
		c0.08,0.022,0.128,0.102,0.112,0.182C81.835,44.984,81.77,45.041,81.691,45.041L81.691,45.041z M81.994,43.642
		c-0.088,0-0.158-0.071-0.158-0.158c0-0.016,0.002-0.032,0.006-0.046c0.023-0.085,0.112-0.134,0.196-0.109
		c0.08,0.022,0.128,0.103,0.112,0.183C82.138,43.585,82.072,43.642,81.994,43.642L81.994,43.642z M82.99,33.69
		c-0.088,0-0.158-0.071-0.158-0.159s0.07-0.16,0.158-0.16s0.158,0.07,0.158,0.158v0.002C83.148,33.619,83.078,33.69,82.99,33.69
		L82.99,33.69z M82.973,32.258c-0.089,0-0.159-0.071-0.159-0.159s0.07-0.159,0.159-0.159c0.088,0,0.158,0.069,0.158,0.158v0.001
		C83.131,32.187,83.061,32.258,82.973,32.258L82.973,32.258z M82.915,30.829c-0.069,0-0.133-0.046-0.152-0.115
		c-0.004-0.015-0.006-0.03-0.006-0.046c0-0.088,0.07-0.158,0.158-0.158c0.082,0,0.15,0.062,0.157,0.143
		c0.01,0.076-0.038,0.148-0.114,0.17C82.944,30.827,82.93,30.829,82.915,30.829L82.915,30.829z M82.817,29.4
		c-0.069,0-0.133-0.045-0.152-0.115c-0.005-0.014-0.007-0.029-0.007-0.045c0-0.088,0.071-0.158,0.159-0.158
		c0.082,0,0.15,0.062,0.158,0.143c0.009,0.076-0.039,0.148-0.114,0.17C82.846,29.398,82.832,29.4,82.817,29.4L82.817,29.4z
		 M82.681,27.976c-0.067,0-0.129-0.042-0.152-0.108c-0.005-0.017-0.008-0.035-0.008-0.052c0-0.088,0.071-0.159,0.158-0.159
		c0.083,0,0.149,0.062,0.159,0.142c0.008,0.073-0.035,0.146-0.108,0.17C82.713,27.974,82.696,27.976,82.681,27.976L82.681,27.976z
		 M82.502,26.556c-0.067,0-0.129-0.042-0.15-0.109c-0.006-0.016-0.009-0.034-0.009-0.051c0-0.088,0.07-0.16,0.159-0.16
		c0.081,0,0.149,0.062,0.157,0.143c0.01,0.073-0.034,0.145-0.106,0.17C82.535,26.553,82.519,26.556,82.502,26.556L82.502,26.556z
		 M82.283,25.141c-0.077,0-0.142-0.056-0.155-0.13c-0.017-0.08,0.032-0.16,0.112-0.184c0.085-0.023,0.172,0.025,0.196,0.109
		c0.004,0.015,0.006,0.031,0.006,0.045C82.442,25.07,82.371,25.141,82.283,25.141L82.283,25.141z M82.025,23.734
		c-0.078,0-0.144-0.057-0.156-0.131c-0.015-0.08,0.032-0.16,0.112-0.182c0.084-0.025,0.173,0.023,0.196,0.108
		c0.004,0.015,0.007,0.03,0.007,0.046C82.185,23.663,82.113,23.734,82.025,23.734L82.025,23.734z M81.728,22.333
		c-0.078,0-0.144-0.056-0.156-0.131c-0.016-0.079,0.032-0.159,0.112-0.182c0.084-0.023,0.173,0.025,0.196,0.109
		c0.004,0.014,0.006,0.03,0.006,0.045C81.886,22.263,81.815,22.333,81.728,22.333L81.728,22.333z M81.393,20.949
		c-0.077,0-0.143-0.057-0.155-0.131c-0.016-0.08,0.032-0.159,0.112-0.182c0.083-0.024,0.172,0.023,0.196,0.109
		c0.005,0.014,0.007,0.029,0.007,0.045C81.553,20.878,81.481,20.949,81.393,20.949L81.393,20.949z M81.016,19.566
		c-0.078,0-0.143-0.057-0.156-0.132c-0.015-0.079,0.033-0.159,0.113-0.183c0.083-0.023,0.172,0.025,0.195,0.109
		c0.004,0.015,0.007,0.031,0.007,0.045C81.175,19.494,81.104,19.566,81.016,19.566L81.016,19.566z M80.596,18.195
		c-0.069,0-0.133-0.047-0.152-0.115c-0.024-0.084,0.022-0.172,0.104-0.197c0.083-0.025,0.17,0.02,0.198,0.101
		c0.001,0.003,0.002,0.007,0.002,0.009c0.024,0.084-0.024,0.172-0.109,0.195C80.624,18.193,80.61,18.195,80.596,18.195
		L80.596,18.195z M80.14,16.837c-0.069,0-0.132-0.046-0.152-0.115c-0.024-0.084,0.023-0.171,0.105-0.197
		c0.083-0.025,0.17,0.02,0.197,0.102c0.001,0.002,0.002,0.006,0.003,0.008c0.023,0.084-0.025,0.172-0.109,0.197
		C80.169,16.835,80.154,16.837,80.14,16.837L80.14,16.837z M79.646,15.494c-0.054,0-0.107-0.028-0.138-0.08
		c-0.005-0.01-0.01-0.02-0.014-0.03c-0.027-0.083,0.018-0.173,0.102-0.2c0.079-0.027,0.165,0.013,0.196,0.088
		c0.032,0.074,0.004,0.162-0.066,0.202C79.699,15.487,79.673,15.494,79.646,15.494L79.646,15.494z M79.115,14.169
		c-0.055,0-0.107-0.028-0.138-0.08c-0.005-0.009-0.011-0.02-0.014-0.029c-0.027-0.084,0.018-0.174,0.102-0.201
		c0.079-0.027,0.164,0.014,0.196,0.089c0.032,0.073,0.004,0.161-0.067,0.201C79.17,14.164,79.143,14.169,79.115,14.169
		L79.115,14.169z M78.548,12.861c-0.056,0-0.109-0.029-0.138-0.08c-0.005-0.009-0.011-0.02-0.014-0.029
		c-0.027-0.084,0.017-0.174,0.1-0.201c0.081-0.027,0.165,0.014,0.197,0.089c0.032,0.073,0.004,0.16-0.067,0.2
		C78.602,12.855,78.575,12.861,78.548,12.861L78.548,12.861z M77.942,11.568c-0.051,0-0.101-0.023-0.132-0.07
		c-0.008-0.012-0.015-0.025-0.02-0.039c-0.028-0.083,0.018-0.174,0.101-0.201c0.078-0.025,0.163,0.012,0.196,0.086
		c0.031,0.07,0.009,0.154-0.057,0.198C78.003,11.56,77.974,11.568,77.942,11.568L77.942,11.568z"/>
	<path fill="#2F2D2A" d="M119.446,55.245c-0.087,0-0.158-0.071-0.158-0.159c0-0.014,0.002-0.031,0.006-0.045
		c0.023-0.084,0.112-0.133,0.197-0.109c0.079,0.023,0.127,0.103,0.112,0.184C119.59,55.188,119.524,55.245,119.446,55.245
		L119.446,55.245z M119.78,53.853c-0.089,0-0.16-0.071-0.16-0.16c0-0.014,0.004-0.03,0.007-0.045
		c0.024-0.084,0.113-0.133,0.196-0.109c0.081,0.023,0.128,0.104,0.112,0.184C119.923,53.796,119.857,53.853,119.78,53.853
		L119.78,53.853z M120.09,52.456c-0.087,0-0.158-0.071-0.158-0.159c0-0.014,0.002-0.031,0.006-0.045
		c0.025-0.084,0.111-0.134,0.197-0.109c0.079,0.022,0.128,0.103,0.112,0.183C120.233,52.399,120.169,52.456,120.09,52.456
		L120.09,52.456z M120.379,51.053c-0.088,0-0.159-0.071-0.159-0.159c0-0.014,0.002-0.031,0.007-0.045
		c0.024-0.084,0.113-0.133,0.196-0.109c0.079,0.023,0.128,0.104,0.112,0.184C120.521,50.998,120.457,51.053,120.379,51.053
		L120.379,51.053z M120.645,49.647c-0.088,0-0.159-0.071-0.159-0.159c0-0.014,0.003-0.031,0.007-0.045
		c0.024-0.084,0.112-0.133,0.196-0.109c0.079,0.023,0.128,0.104,0.112,0.183C120.787,49.59,120.723,49.647,120.645,49.647
		L120.645,49.647z M120.888,48.236c-0.088,0-0.159-0.07-0.159-0.158c0-0.015,0.002-0.031,0.007-0.045
		c0.024-0.084,0.112-0.133,0.196-0.109c0.079,0.023,0.128,0.103,0.112,0.182C121.03,48.18,120.966,48.236,120.888,48.236
		L120.888,48.236z M121.107,46.822c-0.087,0-0.158-0.07-0.158-0.158c0-0.015,0.002-0.031,0.006-0.045
		c0.025-0.086,0.113-0.134,0.197-0.109c0.079,0.022,0.128,0.102,0.112,0.182C121.252,46.765,121.188,46.822,121.107,46.822
		L121.107,46.822z M121.307,45.404c-0.018,0-0.034-0.002-0.051-0.008c-0.073-0.023-0.116-0.096-0.107-0.168
		c0.008-0.08,0.076-0.143,0.158-0.143c0.088,0,0.158,0.07,0.158,0.158c0,0.018-0.003,0.036-0.008,0.053
		C121.435,45.363,121.372,45.404,121.307,45.404L121.307,45.404z M121.481,43.984c-0.014,0-0.028-0.002-0.043-0.006
		c-0.076-0.021-0.124-0.095-0.114-0.171c0.008-0.079,0.075-0.142,0.157-0.142c0.088,0,0.159,0.07,0.159,0.158
		c0,0.015-0.002,0.031-0.007,0.045C121.614,43.939,121.551,43.984,121.481,43.984L121.481,43.984z M121.634,42.561
		c-0.016,0-0.033-0.003-0.05-0.009c-0.073-0.023-0.116-0.096-0.107-0.169c0.008-0.08,0.076-0.142,0.157-0.142
		c0.088,0,0.159,0.07,0.159,0.159c0,0.017-0.003,0.036-0.009,0.052C121.763,42.519,121.701,42.561,121.634,42.561L121.634,42.561z
		 M121.764,41.135c-0.017,0-0.032-0.003-0.05-0.009c-0.072-0.023-0.116-0.095-0.107-0.168c0.008-0.08,0.076-0.143,0.157-0.143
		c0.089,0,0.16,0.071,0.16,0.159c0,0.017-0.003,0.036-0.01,0.052C121.893,41.093,121.831,41.135,121.764,41.135L121.764,41.135z
		 M121.871,39.708c-0.015,0-0.029-0.002-0.043-0.006c-0.076-0.021-0.124-0.096-0.114-0.172c0.008-0.08,0.076-0.142,0.157-0.142l0,0
		c0.089,0,0.159,0.071,0.159,0.159c0,0.014-0.002,0.031-0.006,0.045C122.004,39.664,121.94,39.708,121.871,39.708L121.871,39.708z
		 M121.955,38.279c-0.014,0-0.028-0.002-0.043-0.006c-0.075-0.021-0.122-0.094-0.114-0.17c0.007-0.08,0.075-0.143,0.157-0.143
		c0.089,0,0.16,0.07,0.16,0.158c0,0.016-0.002,0.031-0.006,0.046C122.088,38.234,122.025,38.279,121.955,38.279L121.955,38.279z
		 M122.019,36.849c-0.088,0-0.159-0.07-0.159-0.158s0.071-0.16,0.159-0.16c0.087,0,0.158,0.07,0.158,0.158v0.002
		C122.177,36.779,122.105,36.849,122.019,36.849L122.019,36.849z M122.058,35.418c-0.088,0-0.159-0.071-0.159-0.159
		s0.071-0.158,0.159-0.158c0.087,0,0.158,0.07,0.158,0.157v0.001C122.216,35.347,122.145,35.418,122.058,35.418L122.058,35.418z
		 M122.075,33.988c-0.088,0-0.159-0.071-0.159-0.158c0-0.088,0.071-0.16,0.159-0.16c0.087,0,0.158,0.07,0.158,0.158v0.002
		C122.233,33.917,122.162,33.988,122.075,33.988L122.075,33.988z M122.069,32.556c-0.088,0-0.159-0.071-0.159-0.158
		c0-0.088,0.071-0.16,0.159-0.16s0.159,0.07,0.159,0.158v0.002C122.229,32.485,122.157,32.556,122.069,32.556L122.069,32.556z
		 M122.042,31.126c-0.088,0-0.158-0.07-0.158-0.158s0.07-0.16,0.158-0.16s0.158,0.07,0.158,0.158v0.002
		C122.2,31.056,122.13,31.126,122.042,31.126L122.042,31.126z M121.991,29.701c-0.087,0-0.158-0.07-0.158-0.158
		s0.071-0.16,0.158-0.16c0.089,0,0.16,0.07,0.16,0.158v0.002C122.151,29.63,122.08,29.701,121.991,29.701L121.991,29.701z
		 M121.92,28.271c-0.067,0-0.129-0.042-0.152-0.108c-0.005-0.017-0.007-0.035-0.007-0.052c0-0.088,0.071-0.158,0.159-0.158
		c0.081,0,0.148,0.061,0.157,0.141c0.009,0.074-0.034,0.146-0.107,0.17C121.952,28.269,121.936,28.271,121.92,28.271L121.92,28.271z
		 M121.823,26.843c-0.068,0-0.133-0.046-0.152-0.115c-0.004-0.015-0.006-0.031-0.006-0.045c0-0.088,0.071-0.16,0.158-0.16
		c0.083,0,0.149,0.063,0.158,0.143c0.009,0.076-0.038,0.15-0.113,0.172C121.853,26.841,121.838,26.843,121.823,26.843
		L121.823,26.843z M121.706,25.417c-0.066,0-0.129-0.043-0.15-0.109c-0.006-0.017-0.009-0.035-0.009-0.053
		c0-0.087,0.071-0.158,0.159-0.158c0.082,0,0.148,0.062,0.158,0.141c0.009,0.074-0.035,0.146-0.107,0.17
		C121.739,25.414,121.723,25.417,121.706,25.417L121.706,25.417z M121.565,23.992c-0.066,0-0.128-0.041-0.15-0.107
		c-0.006-0.018-0.009-0.035-0.009-0.053c0-0.088,0.071-0.158,0.159-0.158c0.082,0,0.149,0.061,0.158,0.141
		c0.01,0.073-0.035,0.146-0.108,0.17C121.6,23.99,121.583,23.992,121.565,23.992L121.565,23.992z M121.402,22.57
		c-0.066,0-0.129-0.041-0.15-0.107c-0.006-0.018-0.009-0.035-0.009-0.053c0-0.088,0.07-0.158,0.159-0.158
		c0.081,0,0.149,0.062,0.157,0.141c0.01,0.074-0.034,0.146-0.106,0.17C121.436,22.568,121.419,22.57,121.402,22.57L121.402,22.57z
		 M121.216,21.152c-0.065,0-0.128-0.043-0.15-0.109c-0.005-0.016-0.008-0.035-0.008-0.053c0-0.087,0.071-0.158,0.158-0.158
		c0.083,0,0.15,0.062,0.159,0.143c0.008,0.072-0.035,0.145-0.108,0.169C121.25,21.148,121.233,21.152,121.216,21.152L121.216,21.152
		z"/>
	<g>
		<path fill="#2F2D2A" d="M119.573,20.382c3.48,0,6.303-2.822,6.303-6.303c0-1.204-0.338-2.328-0.925-3.285h-10.758
			c-0.585,0.957-0.924,2.081-0.924,3.285C113.27,17.56,116.092,20.382,119.573,20.382z"/>
		<path fill="#28E8F1" d="M38.963,15.421c2.094,0.762,4.017,1.883,5.692,3.291c1.683,1.416,3.117,3.117,4.227,5.031l5.422-3.129
			c-1.473-2.547-3.383-4.814-5.627-6.696c-1.439-1.208-3.016-2.259-4.701-3.124H32.489v3.491
			C34.763,14.286,36.945,14.685,38.963,15.421z"/>
		<path fill="#A1A4A9" d="M54.304,45.802l-5.422-3.129c-1.109,1.917-2.544,3.617-4.227,5.034c-1.676,1.405-3.599,2.528-5.692,3.29
			c-2.018,0.737-4.2,1.137-6.474,1.137v4.141h10.125c2.205-0.969,4.242-2.246,6.062-3.771
			C50.921,50.621,52.831,48.353,54.304,45.802z"/>
		<path fill="#6BCECD" d="M16.099,42.673c-1.09-1.875-1.859-3.961-2.249-6.176c-0.188-1.07-0.284-2.168-0.284-3.289
			c0-1.119,0.096-2.217,0.284-3.285c0.39-2.217,1.159-4.299,2.249-6.18l-5.424-3.129c-0.033,0.057-0.064,0.113-0.097,0.17v24.848
			c0.032,0.057,0.063,0.113,0.097,0.17L16.099,42.673z"/>
		<path fill="#474D54" d="M27.042,30.064c0.371-0.635,0.844-1.201,1.406-1.672c0.553-0.467,1.191-0.842,1.89-1.094
			c0.672-0.244,1.397-0.378,2.151-0.378s1.482,0.134,2.151,0.378c0.693,0.252,1.334,0.627,1.891,1.094
			c0.561,0.471,1.032,1.037,1.401,1.672l5.488-3.168c-0.736-1.275-1.693-2.41-2.822-3.354c-1.113-0.938-2.394-1.688-3.791-2.197
			c-1.349-0.488-2.801-0.756-4.318-0.756s-2.972,0.268-4.32,0.756c-1.395,0.51-2.676,1.259-3.793,2.197
			c-1.123,0.943-2.078,2.078-2.82,3.354c-0.725,1.254-1.24,2.646-1.498,4.121c-0.125,0.713-0.189,1.445-0.189,2.191
			c0,0.748,0.064,1.48,0.189,2.193c0.258,1.479,0.773,2.867,1.498,4.119c0.742,1.279,1.697,2.414,2.82,3.357
			c1.117,0.938,2.398,1.686,3.793,2.197c1.349,0.488,2.803,0.756,4.32,0.756s2.97-0.268,4.318-0.756
			c1.397-0.512,2.678-1.26,3.791-2.197c1.129-0.943,2.086-2.078,2.822-3.357l-5.488-3.166c-0.369,0.635-0.841,1.203-1.401,1.67
			c-0.557,0.467-1.197,0.842-1.891,1.096c-0.669,0.246-1.397,0.377-2.151,0.377s-1.479-0.131-2.151-0.377
			c-0.698-0.254-1.337-0.629-1.89-1.096c-0.557-0.467-1.035-1.035-1.406-1.67c-0.363-0.627-0.619-1.318-0.744-2.053
			c-0.064-0.355-0.096-0.721-0.096-1.094c0-0.371,0.031-0.736,0.096-1.092C26.423,31.38,26.679,30.691,27.042,30.064z"/>
		<polygon fill="#C5C9CE" points="44.999,31.9 46.338,31.9 46.338,35.41 47.312,35.41 47.312,31.9 48.648,31.9 48.648,31.007 
			44.999,31.007 		"/>
		<polygon fill="#C5C9CE" points="51.718,33.259 50.465,31.007 49.515,31.007 49.515,35.41 50.465,35.41 50.465,32.813 
			51.692,35.019 51.718,35.019 52.959,32.791 52.959,35.41 53.919,35.41 53.919,31.007 52.972,31.007 		"/>
	</g>
</g>
</svg>
